# xmcd
#
# Track frame offsets: 
#        150
#        9768
#        26945
#        54167
#        76875
#        107620
#        123892
#        148288
#        169136
#        202828
#        224039
#        254637
#        280143
#
# Disc length: 4048 seconds
#
# Revision: 1
# Processed by: cddbd v1.5.2PL0 Copyright (c) Steve Scherf et al.
# Submitted via: ExactAudioCopy v1.0b1
#
DISCID=b60fce0d
DTITLE=Anson Funderburgh, Otis Grand, Debbie Davies - Grand Union
DYEAR=1998
DGENRE=Blues
TTITLE0=Guitars On Fire 
TTITLE1=Ther Was A Time
TTITLE2=Holding You Up For Love
TTITLE3=The Things I'd Do For You
TTITLE4=Bone Tones
TTITLE5=I Got Eyes
TTITLE6=Don't Talk About Me
TTITLE7=Westside Bossman
TTITLE8=TC Blues
TTITLE9=Rockin' Daddy
TTITLE10=Country Gril
TTITLE11=A Little Too Late
TTITLE12=The Big Prayer
EXTD=
EXTT0=
EXTT1=
EXTT2=
EXTT3=
EXTT4=
EXTT5=
EXTT6=
EXTT7=
EXTT8=
EXTT9=
EXTT10=
EXTT11=
EXTT12=
PLAYORDER=
